<svg width="41" height="41" viewBox="0 0 41 41" fill="none" xmlns="http://www.w3.org/2000/svg">
<path d="M34.1447 40.9998C37.9289 40.9998 41.0003 37.9285 41.0003 34.1442V27.2886H34.1447C30.3604 27.2886 27.2891 30.3599 27.2891 34.1442C27.2891 37.9285 30.3604 40.9998 34.1447 40.9998Z" fill="#00D9FB"/>
<path d="M34.1444 13.9041C30.3601 13.9041 27.2888 10.8328 27.2888 7.04853V0.192932H34.1444C37.9287 0.192932 41 3.26424 41 7.04853C41 10.8328 37.9287 13.9041 34.1444 13.9041Z" fill="#00D9FB"/>
<path d="M7.04846 27.2886C3.26417 27.2886 0.192865 30.3599 0.192865 34.1442V40.9998H7.04846C10.8327 40.9998 13.9041 37.9285 13.9041 34.1442C13.9041 30.3599 10.8327 27.2886 7.04846 27.2886Z" fill="#0066FF"/>
<path d="M13.741 34.1442C13.741 30.3599 16.8123 27.2886 20.5966 27.2886H27.4522V40.9998H20.5966C16.8123 40.9998 13.741 37.9285 13.741 34.1442Z" fill="#00A0FD"/>
<path d="M0.193115 7.04853C0.193115 3.26424 3.26442 0.192932 7.04871 0.192932H13.9043V13.9041H7.04871C3.26442 13.9041 0.193115 10.8328 0.193115 7.04853Z" fill="#0066FF"/>
<path d="M0.193115 13.7408H7.04871C10.833 13.7408 13.9043 16.8121 13.9043 20.5964C13.9043 24.3807 10.833 27.452 7.04871 27.452H0.193115V13.7408Z" fill="#0066FF"/>
<path d="M27.4522 7.04853C27.4522 10.8328 24.3808 13.9041 20.5966 13.9041C16.8123 13.9041 13.741 10.8328 13.741 7.04853C13.741 3.26424 16.8123 0.192932 20.5966 0.192932C24.3808 0.192932 27.4522 3.26424 27.4522 7.04853Z" fill="#00A0FD"/>
</svg>
